<svg width="547" height="526" viewBox="0 0 547 526" fill="none" xmlns="http://www.w3.org/2000/svg">
<g clip-path="url(#clip0_1_20)">
<rect width="547" height="526" fill="white"/>
<path d="M354.336 169.251L290.917 19.4902C284.028 3.22206 260.972 3.22208 254.083 19.4902L190.67 169.238C189.95 170.938 188.352 172.103 186.513 172.268L24.3406 186.837C6.84789 188.408 -0.269747 210.15 12.907 221.762L135.755 330.022C137.137 331.24 137.738 333.12 137.317 334.913L100.216 493.264C96.1944 510.428 114.736 524.023 129.896 515.025L271.415 431.034C273.006 430.09 274.987 430.101 276.567 431.063L415.061 515.38C430.165 524.576 448.897 511.084 444.96 493.845L408.665 334.91C408.255 333.118 408.863 331.245 410.247 330.034L533.019 222.608C546.232 211.047 539.202 189.29 521.723 187.645L358.472 172.28C356.641 172.107 355.053 170.944 354.336 169.251Z" fill="#e72929" stroke="#e72929" stroke-width="10"/>
<path d="M418.17 510.767L273 423.5L272 12C276.5 11 283.5 14.5 286.5 21.5176L350.377 172.172C351.377 174.531 353.588 176.156 356.138 176.406L521.523 192.62C534.595 193.901 539.823 210.174 529.945 218.83L406.553 326.948C404.058 329.135 402.968 332.517 403.717 335.749L440.511 494.525C443.501 507.428 429.522 517.591 418.17 510.767Z" fill="white"/>
</g>
<defs>
<clipPath id="clip0_1_20">
<rect width="547" height="526" fill="white"/>
</clipPath>
</defs>
</svg>
