<svg width="547" height="526" viewBox="0 0 547 526" fill="none" xmlns="http://www.w3.org/2000/svg">
<g clip-path="url(#clip0_1_2)">
<rect width="547" height="526" fill="white"/>
<path d="M355.336 170.251L291.917 20.4902C285.028 4.22206 261.972 4.22208 255.083 20.4902L191.67 170.238C190.95 171.938 189.352 173.103 187.513 173.268L25.3406 187.837C7.84789 189.408 0.730253 211.15 13.907 222.762L136.755 331.022C138.137 332.24 138.738 334.12 138.317 335.913L101.216 494.264C97.1944 511.428 115.736 525.023 130.896 516.025L272.415 432.034C274.006 431.09 275.987 431.101 277.567 432.063L416.061 516.38C431.165 525.576 449.897 512.084 445.96 494.845L409.665 335.91C409.255 334.118 409.863 332.245 411.247 331.034L534.019 223.608C547.232 212.047 540.202 190.29 522.723 188.645L359.472 173.28C357.641 173.107 356.053 171.944 355.336 170.251Z" fill="#e72929" stroke="#e72929" stroke-width="10"/>
</g>
<defs>
<clipPath id="clip0_1_2">
<rect width="547" height="526" fill="white"/>
</clipPath>
</defs>
</svg>
